<mxfile host="app.diagrams.net" modified="2024-05-18T17:11:59.749Z" agent="Mozilla/5.0 (Windows NT 10.0; Win64; x64) AppleWebKit/537.36 (KHTML, like Gecko) Chrome/124.0.0.0 Safari/537.36" etag="7ZsCnjyBq3uI_7SFwfN8" version="24.4.3" type="device">
  <diagram name="Page-1" id="J8ba8wYPYHJzL6NMGy9t">
    <mxGraphModel dx="1985" dy="1903" grid="1" gridSize="10" guides="1" tooltips="1" connect="1" arrows="1" fold="1" page="1" pageScale="1" pageWidth="850" pageHeight="1100" math="0" shadow="0">
      <root>
        <mxCell id="0" />
        <mxCell id="1" parent="0" />
        <mxCell id="eclzZpHX3D_ZlUmgVR5c-1" value="&lt;font style=&quot;font-size: 14px;&quot;&gt;user&lt;/font&gt;" style="rounded=0;whiteSpace=wrap;html=1;" parent="1" vertex="1">
          <mxGeometry x="210" y="150" width="120" height="50" as="geometry" />
        </mxCell>
        <mxCell id="bU3k72d1yjcAS0w8u8sW-1" value="&lt;u&gt;user_id&lt;/u&gt;" style="ellipse;whiteSpace=wrap;html=1;" parent="1" vertex="1">
          <mxGeometry x="90" y="150" width="80" height="40" as="geometry" />
        </mxCell>
        <mxCell id="bU3k72d1yjcAS0w8u8sW-6" value="full_name" style="ellipse;whiteSpace=wrap;html=1;" parent="1" vertex="1">
          <mxGeometry x="150" y="50" width="80" height="50" as="geometry" />
        </mxCell>
        <mxCell id="bU3k72d1yjcAS0w8u8sW-7" value="email" style="ellipse;whiteSpace=wrap;html=1;" parent="1" vertex="1">
          <mxGeometry x="290" y="50" width="80" height="50" as="geometry" />
        </mxCell>
        <mxCell id="bU3k72d1yjcAS0w8u8sW-8" value="password" style="ellipse;whiteSpace=wrap;html=1;" parent="1" vertex="1">
          <mxGeometry x="360" y="100" width="80" height="50" as="geometry" />
        </mxCell>
        <mxCell id="bU3k72d1yjcAS0w8u8sW-9" value="user_role" style="ellipse;whiteSpace=wrap;html=1;" parent="1" vertex="1">
          <mxGeometry x="370" y="170" width="80" height="50" as="geometry" />
        </mxCell>
        <mxCell id="bU3k72d1yjcAS0w8u8sW-12" value="" style="endArrow=none;html=1;rounded=0;exitX=1;exitY=0.5;exitDx=0;exitDy=0;entryX=0;entryY=0.25;entryDx=0;entryDy=0;" parent="1" source="bU3k72d1yjcAS0w8u8sW-1" target="eclzZpHX3D_ZlUmgVR5c-1" edge="1">
          <mxGeometry width="50" height="50" relative="1" as="geometry">
            <mxPoint x="480" y="80" as="sourcePoint" />
            <mxPoint x="530" y="30" as="targetPoint" />
          </mxGeometry>
        </mxCell>
        <mxCell id="bU3k72d1yjcAS0w8u8sW-13" value="" style="endArrow=none;html=1;rounded=0;exitX=0.5;exitY=1;exitDx=0;exitDy=0;entryX=0.367;entryY=-0.007;entryDx=0;entryDy=0;entryPerimeter=0;" parent="1" source="bU3k72d1yjcAS0w8u8sW-6" target="eclzZpHX3D_ZlUmgVR5c-1" edge="1">
          <mxGeometry width="50" height="50" relative="1" as="geometry">
            <mxPoint x="150" y="105" as="sourcePoint" />
            <mxPoint x="220" y="175" as="targetPoint" />
          </mxGeometry>
        </mxCell>
        <mxCell id="bU3k72d1yjcAS0w8u8sW-14" value="" style="endArrow=none;html=1;rounded=0;entryX=0.5;entryY=0;entryDx=0;entryDy=0;" parent="1" source="bU3k72d1yjcAS0w8u8sW-7" target="eclzZpHX3D_ZlUmgVR5c-1" edge="1">
          <mxGeometry width="50" height="50" relative="1" as="geometry">
            <mxPoint x="250" y="110" as="sourcePoint" />
            <mxPoint x="264" y="160" as="targetPoint" />
          </mxGeometry>
        </mxCell>
        <mxCell id="bU3k72d1yjcAS0w8u8sW-15" value="" style="endArrow=none;html=1;rounded=0;entryX=0.933;entryY=0.047;entryDx=0;entryDy=0;entryPerimeter=0;" parent="1" source="bU3k72d1yjcAS0w8u8sW-8" target="eclzZpHX3D_ZlUmgVR5c-1" edge="1">
          <mxGeometry width="50" height="50" relative="1" as="geometry">
            <mxPoint x="322" y="107" as="sourcePoint" />
            <mxPoint x="280" y="160" as="targetPoint" />
          </mxGeometry>
        </mxCell>
        <mxCell id="bU3k72d1yjcAS0w8u8sW-16" value="" style="endArrow=none;html=1;rounded=0;entryX=1;entryY=0.5;entryDx=0;entryDy=0;" parent="1" source="bU3k72d1yjcAS0w8u8sW-9" target="eclzZpHX3D_ZlUmgVR5c-1" edge="1">
          <mxGeometry width="50" height="50" relative="1" as="geometry">
            <mxPoint x="375" y="147" as="sourcePoint" />
            <mxPoint x="332" y="163" as="targetPoint" />
          </mxGeometry>
        </mxCell>
        <mxCell id="bU3k72d1yjcAS0w8u8sW-17" value="has" style="rhombus;whiteSpace=wrap;html=1;" parent="1" vertex="1">
          <mxGeometry x="230" y="420" width="80" height="80" as="geometry" />
        </mxCell>
        <mxCell id="bU3k72d1yjcAS0w8u8sW-18" value="&lt;span style=&quot;font-size: 14px;&quot;&gt;orders&lt;/span&gt;" style="rounded=0;whiteSpace=wrap;html=1;" parent="1" vertex="1">
          <mxGeometry x="210" y="550" width="120" height="60" as="geometry" />
        </mxCell>
        <mxCell id="bU3k72d1yjcAS0w8u8sW-20" value="" style="endArrow=none;html=1;rounded=0;entryX=0.5;entryY=1;entryDx=0;entryDy=0;exitX=0.5;exitY=0;exitDx=0;exitDy=0;" parent="1" source="bU3k72d1yjcAS0w8u8sW-17" target="eclzZpHX3D_ZlUmgVR5c-1" edge="1">
          <mxGeometry width="50" height="50" relative="1" as="geometry">
            <mxPoint x="403" y="196" as="sourcePoint" />
            <mxPoint x="360" y="185" as="targetPoint" />
          </mxGeometry>
        </mxCell>
        <mxCell id="qDY_l-8YsKE6hI5HPrRT-1" value="1" style="edgeLabel;html=1;align=center;verticalAlign=middle;resizable=0;points=[];" parent="bU3k72d1yjcAS0w8u8sW-20" vertex="1" connectable="0">
          <mxGeometry x="0.614" y="-2" relative="1" as="geometry">
            <mxPoint as="offset" />
          </mxGeometry>
        </mxCell>
        <mxCell id="bU3k72d1yjcAS0w8u8sW-21" value="" style="endArrow=none;html=1;rounded=0;entryX=0.5;entryY=0;entryDx=0;entryDy=0;" parent="1" target="bU3k72d1yjcAS0w8u8sW-18" edge="1">
          <mxGeometry width="50" height="50" relative="1" as="geometry">
            <mxPoint x="270" y="500" as="sourcePoint" />
            <mxPoint x="280" y="370" as="targetPoint" />
          </mxGeometry>
        </mxCell>
        <mxCell id="qDY_l-8YsKE6hI5HPrRT-2" value="m" style="edgeLabel;html=1;align=center;verticalAlign=middle;resizable=0;points=[];" parent="bU3k72d1yjcAS0w8u8sW-21" vertex="1" connectable="0">
          <mxGeometry x="-0.0218" y="1" relative="1" as="geometry">
            <mxPoint as="offset" />
          </mxGeometry>
        </mxCell>
        <mxCell id="bU3k72d1yjcAS0w8u8sW-24" value="&lt;u&gt;order_id&lt;/u&gt;" style="ellipse;whiteSpace=wrap;html=1;" parent="1" vertex="1">
          <mxGeometry x="90" y="570" width="80" height="40" as="geometry" />
        </mxCell>
        <mxCell id="bU3k72d1yjcAS0w8u8sW-25" value="total_amount" style="ellipse;whiteSpace=wrap;html=1;" parent="1" vertex="1">
          <mxGeometry x="100" y="620" width="80" height="50" as="geometry" />
        </mxCell>
        <mxCell id="bU3k72d1yjcAS0w8u8sW-26" value="order_status" style="ellipse;whiteSpace=wrap;html=1;" parent="1" vertex="1">
          <mxGeometry x="160" y="670" width="80" height="50" as="geometry" />
        </mxCell>
        <mxCell id="bU3k72d1yjcAS0w8u8sW-27" value="order_date" style="ellipse;whiteSpace=wrap;html=1;" parent="1" vertex="1">
          <mxGeometry x="270" y="700" width="80" height="50" as="geometry" />
        </mxCell>
        <mxCell id="bU3k72d1yjcAS0w8u8sW-28" value="totao_items" style="ellipse;whiteSpace=wrap;html=1;" parent="1" vertex="1">
          <mxGeometry x="370" y="610" width="80" height="50" as="geometry" />
        </mxCell>
        <mxCell id="bU3k72d1yjcAS0w8u8sW-29" value="total_price" style="ellipse;whiteSpace=wrap;html=1;" parent="1" vertex="1">
          <mxGeometry x="350" y="670" width="80" height="50" as="geometry" />
        </mxCell>
        <mxCell id="bU3k72d1yjcAS0w8u8sW-30" value="" style="endArrow=none;html=1;rounded=0;exitX=0.954;exitY=0.311;exitDx=0;exitDy=0;entryX=0;entryY=0.5;entryDx=0;entryDy=0;exitPerimeter=0;" parent="1" source="bU3k72d1yjcAS0w8u8sW-24" target="bU3k72d1yjcAS0w8u8sW-18" edge="1">
          <mxGeometry width="50" height="50" relative="1" as="geometry">
            <mxPoint x="150" y="265" as="sourcePoint" />
            <mxPoint x="220" y="333" as="targetPoint" />
          </mxGeometry>
        </mxCell>
        <mxCell id="bU3k72d1yjcAS0w8u8sW-31" value="" style="endArrow=none;html=1;rounded=0;exitX=1;exitY=0;exitDx=0;exitDy=0;" parent="1" source="bU3k72d1yjcAS0w8u8sW-25" target="bU3k72d1yjcAS0w8u8sW-18" edge="1">
          <mxGeometry width="50" height="50" relative="1" as="geometry">
            <mxPoint x="176" y="592" as="sourcePoint" />
            <mxPoint x="220" y="590" as="targetPoint" />
          </mxGeometry>
        </mxCell>
        <mxCell id="bU3k72d1yjcAS0w8u8sW-32" value="" style="endArrow=none;html=1;rounded=0;exitX=0.5;exitY=0;exitDx=0;exitDy=0;entryX=0.25;entryY=1;entryDx=0;entryDy=0;" parent="1" source="bU3k72d1yjcAS0w8u8sW-26" target="bU3k72d1yjcAS0w8u8sW-18" edge="1">
          <mxGeometry width="50" height="50" relative="1" as="geometry">
            <mxPoint x="179" y="638" as="sourcePoint" />
            <mxPoint x="220" y="618" as="targetPoint" />
          </mxGeometry>
        </mxCell>
        <mxCell id="bU3k72d1yjcAS0w8u8sW-33" value="" style="endArrow=none;html=1;rounded=0;exitX=0.401;exitY=0.06;exitDx=0;exitDy=0;exitPerimeter=0;" parent="1" source="bU3k72d1yjcAS0w8u8sW-27" target="bU3k72d1yjcAS0w8u8sW-18" edge="1">
          <mxGeometry width="50" height="50" relative="1" as="geometry">
            <mxPoint x="210" y="680" as="sourcePoint" />
            <mxPoint x="250" y="620" as="targetPoint" />
          </mxGeometry>
        </mxCell>
        <mxCell id="bU3k72d1yjcAS0w8u8sW-34" value="" style="endArrow=none;html=1;rounded=0;exitX=0;exitY=0;exitDx=0;exitDy=0;entryX=0.75;entryY=1;entryDx=0;entryDy=0;" parent="1" source="bU3k72d1yjcAS0w8u8sW-29" target="bU3k72d1yjcAS0w8u8sW-18" edge="1">
          <mxGeometry width="50" height="50" relative="1" as="geometry">
            <mxPoint x="282" y="708" as="sourcePoint" />
            <mxPoint x="281" y="620" as="targetPoint" />
          </mxGeometry>
        </mxCell>
        <mxCell id="bU3k72d1yjcAS0w8u8sW-35" value="" style="endArrow=none;html=1;rounded=0;entryX=1;entryY=0.75;entryDx=0;entryDy=0;" parent="1" source="bU3k72d1yjcAS0w8u8sW-28" target="bU3k72d1yjcAS0w8u8sW-18" edge="1">
          <mxGeometry width="50" height="50" relative="1" as="geometry">
            <mxPoint x="351" y="713" as="sourcePoint" />
            <mxPoint x="310" y="620" as="targetPoint" />
          </mxGeometry>
        </mxCell>
        <mxCell id="bU3k72d1yjcAS0w8u8sW-36" value="&lt;span style=&quot;font-size: 14px;&quot;&gt;address&lt;/span&gt;" style="rounded=0;whiteSpace=wrap;html=1;" parent="1" vertex="1">
          <mxGeometry x="710" y="143" width="120" height="50" as="geometry" />
        </mxCell>
        <mxCell id="bU3k72d1yjcAS0w8u8sW-37" value="&lt;u&gt;address_id&lt;/u&gt;" style="ellipse;whiteSpace=wrap;html=1;" parent="1" vertex="1">
          <mxGeometry x="620" y="70" width="80" height="40" as="geometry" />
        </mxCell>
        <mxCell id="bU3k72d1yjcAS0w8u8sW-38" value="has" style="rhombus;whiteSpace=wrap;html=1;" parent="1" vertex="1">
          <mxGeometry x="500" y="128" width="80" height="80" as="geometry" />
        </mxCell>
        <mxCell id="bU3k72d1yjcAS0w8u8sW-39" value="" style="endArrow=none;html=1;rounded=0;entryX=1;entryY=0.25;entryDx=0;entryDy=0;exitX=0;exitY=0.5;exitDx=0;exitDy=0;" parent="1" source="bU3k72d1yjcAS0w8u8sW-38" target="eclzZpHX3D_ZlUmgVR5c-1" edge="1">
          <mxGeometry width="50" height="50" relative="1" as="geometry">
            <mxPoint x="403" y="196" as="sourcePoint" />
            <mxPoint x="360" y="185" as="targetPoint" />
          </mxGeometry>
        </mxCell>
        <mxCell id="bU3k72d1yjcAS0w8u8sW-40" value="" style="endArrow=none;html=1;rounded=0;entryX=0;entryY=0.5;entryDx=0;entryDy=0;exitX=1;exitY=0.5;exitDx=0;exitDy=0;" parent="1" source="bU3k72d1yjcAS0w8u8sW-38" target="bU3k72d1yjcAS0w8u8sW-36" edge="1">
          <mxGeometry width="50" height="50" relative="1" as="geometry">
            <mxPoint x="510" y="178" as="sourcePoint" />
            <mxPoint x="360" y="173" as="targetPoint" />
          </mxGeometry>
        </mxCell>
        <mxCell id="bU3k72d1yjcAS0w8u8sW-41" value="1" style="text;html=1;align=center;verticalAlign=middle;resizable=0;points=[];autosize=1;strokeColor=none;fillColor=none;" parent="1" vertex="1">
          <mxGeometry x="435" y="138" width="30" height="30" as="geometry" />
        </mxCell>
        <mxCell id="bU3k72d1yjcAS0w8u8sW-42" value="m" style="text;html=1;align=center;verticalAlign=middle;resizable=0;points=[];autosize=1;strokeColor=none;fillColor=none;" parent="1" vertex="1">
          <mxGeometry x="605" y="138" width="30" height="30" as="geometry" />
        </mxCell>
        <mxCell id="bU3k72d1yjcAS0w8u8sW-43" value="&lt;span style=&quot;font-size: 14px;&quot;&gt;restaurant&lt;/span&gt;" style="rounded=0;whiteSpace=wrap;html=1;" parent="1" vertex="1">
          <mxGeometry x="736.96" y="538" width="120" height="60" as="geometry" />
        </mxCell>
        <mxCell id="bU3k72d1yjcAS0w8u8sW-44" value="has" style="rhombus;whiteSpace=wrap;html=1;" parent="1" vertex="1">
          <mxGeometry x="450" y="538" width="80" height="80" as="geometry" />
        </mxCell>
        <mxCell id="bU3k72d1yjcAS0w8u8sW-45" value="" style="endArrow=none;html=1;rounded=0;exitX=0.01;exitY=0.627;exitDx=0;exitDy=0;exitPerimeter=0;" parent="1" source="bU3k72d1yjcAS0w8u8sW-43" target="bU3k72d1yjcAS0w8u8sW-44" edge="1">
          <mxGeometry width="50" height="50" relative="1" as="geometry">
            <mxPoint x="409" y="494" as="sourcePoint" />
            <mxPoint x="360" y="445" as="targetPoint" />
          </mxGeometry>
        </mxCell>
        <mxCell id="bU3k72d1yjcAS0w8u8sW-46" value="" style="endArrow=none;html=1;rounded=0;exitX=0;exitY=0.5;exitDx=0;exitDy=0;" parent="1" source="bU3k72d1yjcAS0w8u8sW-44" target="bU3k72d1yjcAS0w8u8sW-18" edge="1">
          <mxGeometry width="50" height="50" relative="1" as="geometry">
            <mxPoint x="611" y="596" as="sourcePoint" />
            <mxPoint x="537" y="591" as="targetPoint" />
          </mxGeometry>
        </mxCell>
        <mxCell id="bU3k72d1yjcAS0w8u8sW-47" value="1" style="text;html=1;align=center;verticalAlign=middle;resizable=0;points=[];autosize=1;strokeColor=none;fillColor=none;" parent="1" vertex="1">
          <mxGeometry x="775" y="618" width="30" height="30" as="geometry" />
        </mxCell>
        <mxCell id="bU3k72d1yjcAS0w8u8sW-48" value="m" style="text;html=1;align=center;verticalAlign=middle;resizable=0;points=[];autosize=1;strokeColor=none;fillColor=none;" parent="1" vertex="1">
          <mxGeometry x="375" y="538" width="30" height="30" as="geometry" />
        </mxCell>
        <mxCell id="bU3k72d1yjcAS0w8u8sW-49" value="" style="endArrow=none;html=1;rounded=0;entryX=0;entryY=0;entryDx=0;entryDy=0;" parent="1" source="bU3k72d1yjcAS0w8u8sW-37" target="bU3k72d1yjcAS0w8u8sW-36" edge="1">
          <mxGeometry width="50" height="50" relative="1" as="geometry">
            <mxPoint x="342" y="107" as="sourcePoint" />
            <mxPoint x="690" y="140" as="targetPoint" />
          </mxGeometry>
        </mxCell>
        <mxCell id="bU3k72d1yjcAS0w8u8sW-50" value="has" style="rhombus;whiteSpace=wrap;html=1;" parent="1" vertex="1">
          <mxGeometry x="390" y="408" width="90" height="80" as="geometry" />
        </mxCell>
        <mxCell id="bU3k72d1yjcAS0w8u8sW-51" value="" style="endArrow=none;html=1;rounded=0;exitX=1;exitY=0;exitDx=0;exitDy=0;" parent="1" source="bU3k72d1yjcAS0w8u8sW-50" target="bU3k72d1yjcAS0w8u8sW-36" edge="1">
          <mxGeometry width="50" height="50" relative="1" as="geometry">
            <mxPoint x="590" y="178" as="sourcePoint" />
            <mxPoint x="650" y="178" as="targetPoint" />
          </mxGeometry>
        </mxCell>
        <mxCell id="bU3k72d1yjcAS0w8u8sW-52" value="" style="endArrow=none;html=1;rounded=0;exitX=0.75;exitY=0;exitDx=0;exitDy=0;" parent="1" source="bU3k72d1yjcAS0w8u8sW-18" target="bU3k72d1yjcAS0w8u8sW-50" edge="1">
          <mxGeometry width="50" height="50" relative="1" as="geometry">
            <mxPoint x="475" y="490" as="sourcePoint" />
            <mxPoint x="655" y="363" as="targetPoint" />
          </mxGeometry>
        </mxCell>
        <mxCell id="bU3k72d1yjcAS0w8u8sW-53" value="1" style="text;html=1;align=center;verticalAlign=middle;resizable=0;points=[];autosize=1;strokeColor=none;fillColor=none;" parent="1" vertex="1">
          <mxGeometry x="661.96" y="208" width="30" height="30" as="geometry" />
        </mxCell>
        <mxCell id="bU3k72d1yjcAS0w8u8sW-54" value="m" style="text;html=1;align=center;verticalAlign=middle;resizable=0;points=[];autosize=1;strokeColor=none;fillColor=none;" parent="1" vertex="1">
          <mxGeometry x="325" y="478" width="30" height="30" as="geometry" />
        </mxCell>
        <mxCell id="bU3k72d1yjcAS0w8u8sW-55" value="&lt;span style=&quot;font-size: 14px;&quot;&gt;order_item&lt;/span&gt;" style="rounded=0;whiteSpace=wrap;html=1;" parent="1" vertex="1">
          <mxGeometry x="185" y="980" width="120" height="60" as="geometry" />
        </mxCell>
        <mxCell id="bU3k72d1yjcAS0w8u8sW-59" value="1" style="text;html=1;align=center;verticalAlign=middle;resizable=0;points=[];autosize=1;strokeColor=none;fillColor=none;" parent="1" vertex="1">
          <mxGeometry x="230" y="730" width="30" height="30" as="geometry" />
        </mxCell>
        <mxCell id="bU3k72d1yjcAS0w8u8sW-60" value="has" style="rhombus;whiteSpace=wrap;html=1;" parent="1" vertex="1">
          <mxGeometry x="205" y="800" width="80" height="80" as="geometry" />
        </mxCell>
        <mxCell id="bU3k72d1yjcAS0w8u8sW-61" value="" style="endArrow=none;html=1;rounded=0;exitX=0.5;exitY=0;exitDx=0;exitDy=0;" parent="1" source="bU3k72d1yjcAS0w8u8sW-60" target="bU3k72d1yjcAS0w8u8sW-18" edge="1">
          <mxGeometry width="50" height="50" relative="1" as="geometry">
            <mxPoint x="312" y="713" as="sourcePoint" />
            <mxPoint x="288" y="620" as="targetPoint" />
          </mxGeometry>
        </mxCell>
        <mxCell id="bU3k72d1yjcAS0w8u8sW-64" value="m" style="text;html=1;align=center;verticalAlign=middle;resizable=0;points=[];autosize=1;strokeColor=none;fillColor=none;" parent="1" vertex="1">
          <mxGeometry x="220" y="908" width="30" height="30" as="geometry" />
        </mxCell>
        <mxCell id="bU3k72d1yjcAS0w8u8sW-65" value="&lt;u&gt;item_id&lt;/u&gt;" style="ellipse;whiteSpace=wrap;html=1;" parent="1" vertex="1">
          <mxGeometry x="50" y="980" width="80" height="40" as="geometry" />
        </mxCell>
        <mxCell id="bU3k72d1yjcAS0w8u8sW-66" value="" style="endArrow=none;html=1;rounded=0;entryX=0.5;entryY=0;entryDx=0;entryDy=0;" parent="1" source="bU3k72d1yjcAS0w8u8sW-60" target="bU3k72d1yjcAS0w8u8sW-55" edge="1">
          <mxGeometry width="50" height="50" relative="1" as="geometry">
            <mxPoint x="255" y="810" as="sourcePoint" />
            <mxPoint x="277" y="620" as="targetPoint" />
          </mxGeometry>
        </mxCell>
        <mxCell id="bU3k72d1yjcAS0w8u8sW-67" value="&lt;span style=&quot;font-size: 14px;&quot;&gt;food&lt;/span&gt;" style="rounded=0;whiteSpace=wrap;html=1;" parent="1" vertex="1">
          <mxGeometry x="761.96" y="980" width="120" height="60" as="geometry" />
        </mxCell>
        <mxCell id="bU3k72d1yjcAS0w8u8sW-68" value="has" style="rhombus;whiteSpace=wrap;html=1;" parent="1" vertex="1">
          <mxGeometry x="435" y="970" width="80" height="80" as="geometry" />
        </mxCell>
        <mxCell id="bU3k72d1yjcAS0w8u8sW-69" value="" style="endArrow=none;html=1;rounded=0;exitX=0;exitY=0.5;exitDx=0;exitDy=0;" parent="1" source="bU3k72d1yjcAS0w8u8sW-68" target="bU3k72d1yjcAS0w8u8sW-55" edge="1">
          <mxGeometry width="50" height="50" relative="1" as="geometry">
            <mxPoint x="255" y="890" as="sourcePoint" />
            <mxPoint x="255" y="990" as="targetPoint" />
          </mxGeometry>
        </mxCell>
        <mxCell id="bU3k72d1yjcAS0w8u8sW-70" value="" style="endArrow=none;html=1;rounded=0;entryX=1;entryY=0.5;entryDx=0;entryDy=0;" parent="1" source="bU3k72d1yjcAS0w8u8sW-67" target="bU3k72d1yjcAS0w8u8sW-68" edge="1">
          <mxGeometry width="50" height="50" relative="1" as="geometry">
            <mxPoint x="591.96" y="1182" as="sourcePoint" />
            <mxPoint x="570" y="1220" as="targetPoint" />
          </mxGeometry>
        </mxCell>
        <mxCell id="bU3k72d1yjcAS0w8u8sW-71" value="m" style="text;html=1;align=center;verticalAlign=middle;resizable=0;points=[];autosize=1;strokeColor=none;fillColor=none;" parent="1" vertex="1">
          <mxGeometry x="335" y="978" width="30" height="30" as="geometry" />
        </mxCell>
        <mxCell id="bU3k72d1yjcAS0w8u8sW-72" value="1" style="text;html=1;align=center;verticalAlign=middle;resizable=0;points=[];autosize=1;strokeColor=none;fillColor=none;" parent="1" vertex="1">
          <mxGeometry x="631.96" y="978" width="30" height="30" as="geometry" />
        </mxCell>
        <mxCell id="bU3k72d1yjcAS0w8u8sW-73" value="quantity" style="ellipse;whiteSpace=wrap;html=1;" parent="1" vertex="1">
          <mxGeometry x="60" y="1050" width="80" height="50" as="geometry" />
        </mxCell>
        <mxCell id="bU3k72d1yjcAS0w8u8sW-75" value="total_price" style="ellipse;whiteSpace=wrap;html=1;" parent="1" vertex="1">
          <mxGeometry x="140" y="1100" width="80" height="50" as="geometry" />
        </mxCell>
        <mxCell id="bU3k72d1yjcAS0w8u8sW-76" value="ingredients" style="ellipse;whiteSpace=wrap;html=1;" parent="1" vertex="1">
          <mxGeometry x="245" y="1100" width="80" height="50" as="geometry" />
        </mxCell>
        <mxCell id="bU3k72d1yjcAS0w8u8sW-77" value="" style="endArrow=none;html=1;rounded=0;entryX=1;entryY=1;entryDx=0;entryDy=0;" parent="1" source="bU3k72d1yjcAS0w8u8sW-55" target="bU3k72d1yjcAS0w8u8sW-65" edge="1">
          <mxGeometry width="50" height="50" relative="1" as="geometry">
            <mxPoint x="255" y="890" as="sourcePoint" />
            <mxPoint x="255" y="990" as="targetPoint" />
          </mxGeometry>
        </mxCell>
        <mxCell id="bU3k72d1yjcAS0w8u8sW-78" value="" style="endArrow=none;html=1;rounded=0;exitX=0;exitY=1;exitDx=0;exitDy=0;" parent="1" source="bU3k72d1yjcAS0w8u8sW-55" target="bU3k72d1yjcAS0w8u8sW-73" edge="1">
          <mxGeometry width="50" height="50" relative="1" as="geometry">
            <mxPoint x="195" y="1022" as="sourcePoint" />
            <mxPoint x="128" y="1024" as="targetPoint" />
          </mxGeometry>
        </mxCell>
        <mxCell id="bU3k72d1yjcAS0w8u8sW-79" value="" style="endArrow=none;html=1;rounded=0;" parent="1" source="bU3k72d1yjcAS0w8u8sW-55" target="bU3k72d1yjcAS0w8u8sW-75" edge="1">
          <mxGeometry width="50" height="50" relative="1" as="geometry">
            <mxPoint x="220" y="970" as="sourcePoint" />
            <mxPoint x="143" y="1071" as="targetPoint" />
          </mxGeometry>
        </mxCell>
        <mxCell id="bU3k72d1yjcAS0w8u8sW-80" value="" style="endArrow=none;html=1;rounded=0;" parent="1" source="bU3k72d1yjcAS0w8u8sW-55" target="bU3k72d1yjcAS0w8u8sW-76" edge="1">
          <mxGeometry width="50" height="50" relative="1" as="geometry">
            <mxPoint x="238" y="1050" as="sourcePoint" />
            <mxPoint x="203" y="1111" as="targetPoint" />
          </mxGeometry>
        </mxCell>
        <mxCell id="bU3k72d1yjcAS0w8u8sW-81" value="&lt;u&gt;food_id&lt;/u&gt;" style="ellipse;whiteSpace=wrap;html=1;" parent="1" vertex="1">
          <mxGeometry x="701.96" y="910" width="80" height="40" as="geometry" />
        </mxCell>
        <mxCell id="bU3k72d1yjcAS0w8u8sW-82" value="name" style="ellipse;whiteSpace=wrap;html=1;" parent="1" vertex="1">
          <mxGeometry x="806.96" y="890" width="80" height="50" as="geometry" />
        </mxCell>
        <mxCell id="bU3k72d1yjcAS0w8u8sW-83" value="description" style="ellipse;whiteSpace=wrap;html=1;" parent="1" vertex="1">
          <mxGeometry x="896.96" y="905" width="80" height="50" as="geometry" />
        </mxCell>
        <mxCell id="bU3k72d1yjcAS0w8u8sW-84" value="price" style="ellipse;whiteSpace=wrap;html=1;" parent="1" vertex="1">
          <mxGeometry x="916.96" y="960" width="80" height="50" as="geometry" />
        </mxCell>
        <mxCell id="bU3k72d1yjcAS0w8u8sW-85" value="&lt;span style=&quot;font-size: 14px;&quot;&gt;food_category&lt;/span&gt;" style="rounded=0;whiteSpace=wrap;html=1;" parent="1" vertex="1">
          <mxGeometry x="761.96" y="1402" width="120" height="60" as="geometry" />
        </mxCell>
        <mxCell id="bU3k72d1yjcAS0w8u8sW-86" value="has" style="rhombus;whiteSpace=wrap;html=1;" parent="1" vertex="1">
          <mxGeometry x="781.96" y="1252" width="80" height="80" as="geometry" />
        </mxCell>
        <mxCell id="bU3k72d1yjcAS0w8u8sW-87" value="" style="endArrow=none;html=1;rounded=0;exitX=0.5;exitY=1;exitDx=0;exitDy=0;" parent="1" source="bU3k72d1yjcAS0w8u8sW-67" target="bU3k72d1yjcAS0w8u8sW-86" edge="1">
          <mxGeometry width="50" height="50" relative="1" as="geometry">
            <mxPoint x="771.96" y="1021" as="sourcePoint" />
            <mxPoint x="671.96" y="1022" as="targetPoint" />
          </mxGeometry>
        </mxCell>
        <mxCell id="bU3k72d1yjcAS0w8u8sW-179" value="m" style="edgeLabel;html=1;align=center;verticalAlign=middle;resizable=0;points=[];" parent="bU3k72d1yjcAS0w8u8sW-87" vertex="1" connectable="0">
          <mxGeometry x="-0.6776" y="1" relative="1" as="geometry">
            <mxPoint as="offset" />
          </mxGeometry>
        </mxCell>
        <mxCell id="bU3k72d1yjcAS0w8u8sW-88" value="" style="endArrow=none;html=1;rounded=0;exitX=0.5;exitY=0;exitDx=0;exitDy=0;entryX=0.5;entryY=1;entryDx=0;entryDy=0;" parent="1" source="bU3k72d1yjcAS0w8u8sW-85" target="bU3k72d1yjcAS0w8u8sW-86" edge="1">
          <mxGeometry width="50" height="50" relative="1" as="geometry">
            <mxPoint x="826.96" y="1200" as="sourcePoint" />
            <mxPoint x="829.96" y="1264" as="targetPoint" />
          </mxGeometry>
        </mxCell>
        <mxCell id="bU3k72d1yjcAS0w8u8sW-178" value="1" style="edgeLabel;html=1;align=center;verticalAlign=middle;resizable=0;points=[];" parent="bU3k72d1yjcAS0w8u8sW-88" vertex="1" connectable="0">
          <mxGeometry x="-0.4534" y="1" relative="1" as="geometry">
            <mxPoint as="offset" />
          </mxGeometry>
        </mxCell>
        <mxCell id="bU3k72d1yjcAS0w8u8sW-92" value="" style="endArrow=none;html=1;rounded=0;exitX=0.5;exitY=1;exitDx=0;exitDy=0;" parent="1" source="bU3k72d1yjcAS0w8u8sW-81" target="bU3k72d1yjcAS0w8u8sW-67" edge="1">
          <mxGeometry width="50" height="50" relative="1" as="geometry">
            <mxPoint x="411.96" y="1052" as="sourcePoint" />
            <mxPoint x="432.96" y="1113" as="targetPoint" />
          </mxGeometry>
        </mxCell>
        <mxCell id="bU3k72d1yjcAS0w8u8sW-93" value="" style="endArrow=none;html=1;rounded=0;exitX=0.5;exitY=1;exitDx=0;exitDy=0;entryX=0.5;entryY=0;entryDx=0;entryDy=0;" parent="1" source="bU3k72d1yjcAS0w8u8sW-82" target="bU3k72d1yjcAS0w8u8sW-67" edge="1">
          <mxGeometry width="50" height="50" relative="1" as="geometry">
            <mxPoint x="751.96" y="960" as="sourcePoint" />
            <mxPoint x="791.96" y="990" as="targetPoint" />
          </mxGeometry>
        </mxCell>
        <mxCell id="bU3k72d1yjcAS0w8u8sW-94" value="" style="endArrow=none;html=1;rounded=0;exitX=0.064;exitY=0.666;exitDx=0;exitDy=0;exitPerimeter=0;" parent="1" source="bU3k72d1yjcAS0w8u8sW-83" target="bU3k72d1yjcAS0w8u8sW-67" edge="1">
          <mxGeometry width="50" height="50" relative="1" as="geometry">
            <mxPoint x="856.96" y="950" as="sourcePoint" />
            <mxPoint x="831.96" y="990" as="targetPoint" />
          </mxGeometry>
        </mxCell>
        <mxCell id="bU3k72d1yjcAS0w8u8sW-95" value="" style="endArrow=none;html=1;rounded=0;entryX=1;entryY=0.5;entryDx=0;entryDy=0;" parent="1" source="bU3k72d1yjcAS0w8u8sW-84" target="bU3k72d1yjcAS0w8u8sW-67" edge="1">
          <mxGeometry width="50" height="50" relative="1" as="geometry">
            <mxPoint x="921.96" y="965" as="sourcePoint" />
            <mxPoint x="880.96" y="990" as="targetPoint" />
          </mxGeometry>
        </mxCell>
        <mxCell id="bU3k72d1yjcAS0w8u8sW-96" value="&lt;u&gt;food_&lt;/u&gt;&lt;div&gt;&lt;u&gt;category_id&lt;/u&gt;&lt;/div&gt;" style="ellipse;whiteSpace=wrap;html=1;" parent="1" vertex="1">
          <mxGeometry x="651.96" y="1470" width="80" height="40" as="geometry" />
        </mxCell>
        <mxCell id="bU3k72d1yjcAS0w8u8sW-97" value="images" style="ellipse;whiteSpace=wrap;html=1;" parent="1" vertex="1">
          <mxGeometry x="936.96" y="1052" width="80" height="50" as="geometry" />
        </mxCell>
        <mxCell id="bU3k72d1yjcAS0w8u8sW-98" value="" style="endArrow=none;html=1;rounded=0;exitX=0.375;exitY=0.04;exitDx=0;exitDy=0;exitPerimeter=0;" parent="1" source="bU3k72d1yjcAS0w8u8sW-97" target="bU3k72d1yjcAS0w8u8sW-67" edge="1">
          <mxGeometry width="50" height="50" relative="1" as="geometry">
            <mxPoint x="926.96" y="1021" as="sourcePoint" />
            <mxPoint x="891.96" y="1020" as="targetPoint" />
          </mxGeometry>
        </mxCell>
        <mxCell id="bU3k72d1yjcAS0w8u8sW-99" value="available" style="ellipse;whiteSpace=wrap;html=1;" parent="1" vertex="1">
          <mxGeometry x="906.96" y="1102" width="80" height="50" as="geometry" />
        </mxCell>
        <mxCell id="bU3k72d1yjcAS0w8u8sW-100" value="" style="endArrow=none;html=1;rounded=0;entryX=1;entryY=1;entryDx=0;entryDy=0;" parent="1" source="bU3k72d1yjcAS0w8u8sW-99" target="bU3k72d1yjcAS0w8u8sW-67" edge="1">
          <mxGeometry width="50" height="50" relative="1" as="geometry">
            <mxPoint x="936.96" y="1092" as="sourcePoint" />
            <mxPoint x="875.96" y="1050" as="targetPoint" />
          </mxGeometry>
        </mxCell>
        <mxCell id="bU3k72d1yjcAS0w8u8sW-101" value="has" style="rhombus;whiteSpace=wrap;html=1;" parent="1" vertex="1">
          <mxGeometry x="756.96" y="750" width="80" height="80" as="geometry" />
        </mxCell>
        <mxCell id="bU3k72d1yjcAS0w8u8sW-102" value="" style="endArrow=none;html=1;rounded=0;entryX=0.5;entryY=0;entryDx=0;entryDy=0;" parent="1" source="bU3k72d1yjcAS0w8u8sW-43" target="bU3k72d1yjcAS0w8u8sW-101" edge="1">
          <mxGeometry width="50" height="50" relative="1" as="geometry">
            <mxPoint x="631" y="426" as="sourcePoint" />
            <mxPoint x="559" y="427" as="targetPoint" />
          </mxGeometry>
        </mxCell>
        <mxCell id="bU3k72d1yjcAS0w8u8sW-103" value="" style="endArrow=none;html=1;rounded=0;exitX=0.25;exitY=0;exitDx=0;exitDy=0;" parent="1" source="bU3k72d1yjcAS0w8u8sW-67" target="bU3k72d1yjcAS0w8u8sW-101" edge="1">
          <mxGeometry width="50" height="50" relative="1" as="geometry">
            <mxPoint x="670" y="820" as="sourcePoint" />
            <mxPoint x="690" y="560" as="targetPoint" />
          </mxGeometry>
        </mxCell>
        <mxCell id="bU3k72d1yjcAS0w8u8sW-104" value="1" style="text;html=1;align=center;verticalAlign=middle;resizable=0;points=[];autosize=1;strokeColor=none;fillColor=none;" parent="1" vertex="1">
          <mxGeometry x="651.96" y="540" width="30" height="30" as="geometry" />
        </mxCell>
        <mxCell id="bU3k72d1yjcAS0w8u8sW-105" value="m" style="text;html=1;align=center;verticalAlign=middle;resizable=0;points=[];autosize=1;strokeColor=none;fillColor=none;" parent="1" vertex="1">
          <mxGeometry x="761.96" y="810" width="30" height="30" as="geometry" />
        </mxCell>
        <mxCell id="bU3k72d1yjcAS0w8u8sW-106" value="&lt;u&gt;is_veg&lt;/u&gt;" style="ellipse;whiteSpace=wrap;html=1;" parent="1" vertex="1">
          <mxGeometry x="651.96" y="1042" width="80" height="40" as="geometry" />
        </mxCell>
        <mxCell id="bU3k72d1yjcAS0w8u8sW-107" value="" style="endArrow=none;html=1;rounded=0;exitX=1;exitY=0;exitDx=0;exitDy=0;entryX=0.058;entryY=0.973;entryDx=0;entryDy=0;entryPerimeter=0;" parent="1" source="bU3k72d1yjcAS0w8u8sW-106" target="bU3k72d1yjcAS0w8u8sW-67" edge="1">
          <mxGeometry width="50" height="50" relative="1" as="geometry">
            <mxPoint x="751.96" y="960" as="sourcePoint" />
            <mxPoint x="791.96" y="990" as="targetPoint" />
          </mxGeometry>
        </mxCell>
        <mxCell id="bU3k72d1yjcAS0w8u8sW-108" value="is_seasonal" style="ellipse;whiteSpace=wrap;html=1;" parent="1" vertex="1">
          <mxGeometry x="836.96" y="1142" width="80" height="50" as="geometry" />
        </mxCell>
        <mxCell id="bU3k72d1yjcAS0w8u8sW-109" value="" style="endArrow=none;html=1;rounded=0;entryX=0.75;entryY=1;entryDx=0;entryDy=0;" parent="1" source="bU3k72d1yjcAS0w8u8sW-108" target="bU3k72d1yjcAS0w8u8sW-67" edge="1">
          <mxGeometry width="50" height="50" relative="1" as="geometry">
            <mxPoint x="936.96" y="1110" as="sourcePoint" />
            <mxPoint x="831.96" y="1050" as="targetPoint" />
          </mxGeometry>
        </mxCell>
        <mxCell id="bU3k72d1yjcAS0w8u8sW-111" value="&lt;span style=&quot;font-size: 14px;&quot;&gt;ingredients_item&lt;/span&gt;" style="rounded=0;whiteSpace=wrap;html=1;" parent="1" vertex="1">
          <mxGeometry x="1310" y="992" width="120" height="60" as="geometry" />
        </mxCell>
        <mxCell id="bU3k72d1yjcAS0w8u8sW-112" value="has" style="rhombus;whiteSpace=wrap;html=1;" parent="1" vertex="1">
          <mxGeometry x="1110" y="982" width="80" height="80" as="geometry" />
        </mxCell>
        <mxCell id="bU3k72d1yjcAS0w8u8sW-113" value="" style="endArrow=none;html=1;rounded=0;exitX=0;exitY=0.5;exitDx=0;exitDy=0;entryX=1;entryY=0.75;entryDx=0;entryDy=0;" parent="1" source="bU3k72d1yjcAS0w8u8sW-112" target="bU3k72d1yjcAS0w8u8sW-67" edge="1">
          <mxGeometry width="50" height="50" relative="1" as="geometry">
            <mxPoint x="976.96" y="1064" as="sourcePoint" />
            <mxPoint x="891.96" y="1038" as="targetPoint" />
          </mxGeometry>
        </mxCell>
        <mxCell id="bU3k72d1yjcAS0w8u8sW-114" value="" style="endArrow=none;html=1;rounded=0;exitX=0;exitY=0.5;exitDx=0;exitDy=0;entryX=1;entryY=0.5;entryDx=0;entryDy=0;" parent="1" source="bU3k72d1yjcAS0w8u8sW-111" target="bU3k72d1yjcAS0w8u8sW-112" edge="1">
          <mxGeometry width="50" height="50" relative="1" as="geometry">
            <mxPoint x="1106.96" y="1020" as="sourcePoint" />
            <mxPoint x="891.96" y="1035" as="targetPoint" />
          </mxGeometry>
        </mxCell>
        <mxCell id="bU3k72d1yjcAS0w8u8sW-115" value="m" style="text;html=1;align=center;verticalAlign=middle;resizable=0;points=[];autosize=1;strokeColor=none;fillColor=none;" parent="1" vertex="1">
          <mxGeometry x="976.96" y="1000" width="30" height="30" as="geometry" />
        </mxCell>
        <mxCell id="bU3k72d1yjcAS0w8u8sW-116" value="n" style="text;html=1;align=center;verticalAlign=middle;resizable=0;points=[];autosize=1;strokeColor=none;fillColor=none;" parent="1" vertex="1">
          <mxGeometry x="1240" y="992" width="30" height="30" as="geometry" />
        </mxCell>
        <mxCell id="bU3k72d1yjcAS0w8u8sW-117" value="&lt;u&gt;creation_date&lt;/u&gt;" style="ellipse;whiteSpace=wrap;html=1;" parent="1" vertex="1">
          <mxGeometry x="661.96" y="1102" width="80" height="40" as="geometry" />
        </mxCell>
        <mxCell id="bU3k72d1yjcAS0w8u8sW-118" value="" style="endArrow=none;html=1;rounded=0;exitX=1;exitY=0;exitDx=0;exitDy=0;" parent="1" source="bU3k72d1yjcAS0w8u8sW-117" target="bU3k72d1yjcAS0w8u8sW-67" edge="1">
          <mxGeometry width="50" height="50" relative="1" as="geometry">
            <mxPoint x="729.96" y="1058" as="sourcePoint" />
            <mxPoint x="778.96" y="1048" as="targetPoint" />
          </mxGeometry>
        </mxCell>
        <mxCell id="bU3k72d1yjcAS0w8u8sW-119" value="&lt;u&gt;restaurant_id&lt;/u&gt;" style="ellipse;whiteSpace=wrap;html=1;" parent="1" vertex="1">
          <mxGeometry x="806.96" y="420" width="80" height="40" as="geometry" />
        </mxCell>
        <mxCell id="bU3k72d1yjcAS0w8u8sW-123" value="has" style="rhombus;whiteSpace=wrap;html=1;" parent="1" vertex="1">
          <mxGeometry x="571.96" y="370" width="90" height="80" as="geometry" />
        </mxCell>
        <mxCell id="bU3k72d1yjcAS0w8u8sW-124" value="" style="endArrow=none;html=1;rounded=0;entryX=0.917;entryY=1.06;entryDx=0;entryDy=0;entryPerimeter=0;" parent="1" source="bU3k72d1yjcAS0w8u8sW-123" target="eclzZpHX3D_ZlUmgVR5c-1" edge="1">
          <mxGeometry width="50" height="50" relative="1" as="geometry">
            <mxPoint x="468" y="438" as="sourcePoint" />
            <mxPoint x="750" y="203" as="targetPoint" />
          </mxGeometry>
        </mxCell>
        <mxCell id="bU3k72d1yjcAS0w8u8sW-125" value="" style="endArrow=none;html=1;rounded=0;entryX=1;entryY=1;entryDx=0;entryDy=0;exitX=0;exitY=0;exitDx=0;exitDy=0;" parent="1" source="bU3k72d1yjcAS0w8u8sW-43" target="bU3k72d1yjcAS0w8u8sW-123" edge="1">
          <mxGeometry width="50" height="50" relative="1" as="geometry">
            <mxPoint x="602" y="402" as="sourcePoint" />
            <mxPoint x="330" y="213" as="targetPoint" />
          </mxGeometry>
        </mxCell>
        <mxCell id="bU3k72d1yjcAS0w8u8sW-126" value="1" style="text;html=1;align=center;verticalAlign=middle;resizable=0;points=[];autosize=1;strokeColor=none;fillColor=none;" parent="1" vertex="1">
          <mxGeometry x="390" y="238" width="30" height="30" as="geometry" />
        </mxCell>
        <mxCell id="bU3k72d1yjcAS0w8u8sW-127" value="1" style="text;html=1;align=center;verticalAlign=middle;resizable=0;points=[];autosize=1;strokeColor=none;fillColor=none;" parent="1" vertex="1">
          <mxGeometry x="711.96" y="488" width="30" height="30" as="geometry" />
        </mxCell>
        <mxCell id="bU3k72d1yjcAS0w8u8sW-128" value="name" style="ellipse;whiteSpace=wrap;html=1;" parent="1" vertex="1">
          <mxGeometry x="890" y="420" width="80" height="50" as="geometry" />
        </mxCell>
        <mxCell id="bU3k72d1yjcAS0w8u8sW-129" value="description" style="ellipse;whiteSpace=wrap;html=1;" parent="1" vertex="1">
          <mxGeometry x="961.96" y="458" width="80" height="50" as="geometry" />
        </mxCell>
        <mxCell id="bU3k72d1yjcAS0w8u8sW-130" value="cuisine_type" style="ellipse;whiteSpace=wrap;html=1;" parent="1" vertex="1">
          <mxGeometry x="996.96" y="580" width="80" height="50" as="geometry" />
        </mxCell>
        <mxCell id="bU3k72d1yjcAS0w8u8sW-131" value="has" style="rhombus;whiteSpace=wrap;html=1;" parent="1" vertex="1">
          <mxGeometry x="725" y="310" width="90" height="80" as="geometry" />
        </mxCell>
        <mxCell id="bU3k72d1yjcAS0w8u8sW-132" value="" style="endArrow=none;html=1;rounded=0;entryX=0.5;entryY=0;entryDx=0;entryDy=0;exitX=0.5;exitY=1;exitDx=0;exitDy=0;" parent="1" source="bU3k72d1yjcAS0w8u8sW-36" target="bU3k72d1yjcAS0w8u8sW-131" edge="1">
          <mxGeometry width="50" height="50" relative="1" as="geometry">
            <mxPoint x="602" y="402" as="sourcePoint" />
            <mxPoint x="330" y="213" as="targetPoint" />
          </mxGeometry>
        </mxCell>
        <mxCell id="bU3k72d1yjcAS0w8u8sW-133" value="" style="endArrow=none;html=1;rounded=0;entryX=0.5;entryY=1;entryDx=0;entryDy=0;exitX=0.184;exitY=0;exitDx=0;exitDy=0;exitPerimeter=0;" parent="1" source="bU3k72d1yjcAS0w8u8sW-43" target="bU3k72d1yjcAS0w8u8sW-131" edge="1">
          <mxGeometry width="50" height="50" relative="1" as="geometry">
            <mxPoint x="780" y="203" as="sourcePoint" />
            <mxPoint x="780" y="320" as="targetPoint" />
          </mxGeometry>
        </mxCell>
        <mxCell id="bU3k72d1yjcAS0w8u8sW-134" value="1" style="text;html=1;align=center;verticalAlign=middle;resizable=0;points=[];autosize=1;strokeColor=none;fillColor=none;" parent="1" vertex="1">
          <mxGeometry x="745" y="208" width="30" height="30" as="geometry" />
        </mxCell>
        <mxCell id="bU3k72d1yjcAS0w8u8sW-135" value="1" style="text;html=1;align=center;verticalAlign=middle;resizable=0;points=[];autosize=1;strokeColor=none;fillColor=none;" parent="1" vertex="1">
          <mxGeometry x="736.96" y="445" width="30" height="30" as="geometry" />
        </mxCell>
        <mxCell id="bU3k72d1yjcAS0w8u8sW-137" value="opening_hours" style="ellipse;whiteSpace=wrap;html=1;" parent="1" vertex="1">
          <mxGeometry x="661.96" y="618" width="80" height="50" as="geometry" />
        </mxCell>
        <mxCell id="bU3k72d1yjcAS0w8u8sW-138" value="images" style="ellipse;whiteSpace=wrap;html=1;" parent="1" vertex="1">
          <mxGeometry x="986.96" y="518" width="80" height="50" as="geometry" />
        </mxCell>
        <mxCell id="bU3k72d1yjcAS0w8u8sW-139" value="reg_date" style="ellipse;whiteSpace=wrap;html=1;" parent="1" vertex="1">
          <mxGeometry x="951.96" y="630" width="80" height="50" as="geometry" />
        </mxCell>
        <mxCell id="bU3k72d1yjcAS0w8u8sW-140" value="is_open" style="ellipse;whiteSpace=wrap;html=1;" parent="1" vertex="1">
          <mxGeometry x="871.96" y="640" width="80" height="50" as="geometry" />
        </mxCell>
        <mxCell id="bU3k72d1yjcAS0w8u8sW-141" value="" style="endArrow=none;html=1;rounded=0;exitX=0.5;exitY=0;exitDx=0;exitDy=0;" parent="1" source="bU3k72d1yjcAS0w8u8sW-43" target="bU3k72d1yjcAS0w8u8sW-119" edge="1">
          <mxGeometry width="50" height="50" relative="1" as="geometry">
            <mxPoint x="769" y="548" as="sourcePoint" />
            <mxPoint x="780" y="400" as="targetPoint" />
          </mxGeometry>
        </mxCell>
        <mxCell id="bU3k72d1yjcAS0w8u8sW-142" value="" style="endArrow=none;html=1;rounded=0;exitX=0.865;exitY=-0.009;exitDx=0;exitDy=0;entryX=0;entryY=1;entryDx=0;entryDy=0;exitPerimeter=0;" parent="1" source="bU3k72d1yjcAS0w8u8sW-43" target="bU3k72d1yjcAS0w8u8sW-128" edge="1">
          <mxGeometry width="50" height="50" relative="1" as="geometry">
            <mxPoint x="807" y="548" as="sourcePoint" />
            <mxPoint x="847" y="469" as="targetPoint" />
          </mxGeometry>
        </mxCell>
        <mxCell id="bU3k72d1yjcAS0w8u8sW-143" value="" style="endArrow=none;html=1;rounded=0;exitX=0.998;exitY=0.415;exitDx=0;exitDy=0;exitPerimeter=0;" parent="1" source="bU3k72d1yjcAS0w8u8sW-43" target="bU3k72d1yjcAS0w8u8sW-129" edge="1">
          <mxGeometry width="50" height="50" relative="1" as="geometry">
            <mxPoint x="850" y="560" as="sourcePoint" />
            <mxPoint x="941" y="480" as="targetPoint" />
          </mxGeometry>
        </mxCell>
        <mxCell id="bU3k72d1yjcAS0w8u8sW-144" value="" style="endArrow=none;html=1;rounded=0;exitX=1;exitY=0.75;exitDx=0;exitDy=0;" parent="1" source="bU3k72d1yjcAS0w8u8sW-43" target="bU3k72d1yjcAS0w8u8sW-138" edge="1">
          <mxGeometry width="50" height="50" relative="1" as="geometry">
            <mxPoint x="870" y="572" as="sourcePoint" />
            <mxPoint x="986" y="526" as="targetPoint" />
          </mxGeometry>
        </mxCell>
        <mxCell id="bU3k72d1yjcAS0w8u8sW-145" value="" style="endArrow=none;html=1;rounded=0;exitX=1;exitY=1;exitDx=0;exitDy=0;" parent="1" source="bU3k72d1yjcAS0w8u8sW-43" target="bU3k72d1yjcAS0w8u8sW-130" edge="1">
          <mxGeometry width="50" height="50" relative="1" as="geometry">
            <mxPoint x="867" y="593" as="sourcePoint" />
            <mxPoint x="988" y="579" as="targetPoint" />
          </mxGeometry>
        </mxCell>
        <mxCell id="bU3k72d1yjcAS0w8u8sW-146" value="" style="endArrow=none;html=1;rounded=0;exitX=0.909;exitY=0.988;exitDx=0;exitDy=0;exitPerimeter=0;" parent="1" source="bU3k72d1yjcAS0w8u8sW-43" target="bU3k72d1yjcAS0w8u8sW-139" edge="1">
          <mxGeometry width="50" height="50" relative="1" as="geometry">
            <mxPoint x="867" y="608" as="sourcePoint" />
            <mxPoint x="981" y="627" as="targetPoint" />
          </mxGeometry>
        </mxCell>
        <mxCell id="bU3k72d1yjcAS0w8u8sW-147" value="" style="endArrow=none;html=1;rounded=0;exitX=0.75;exitY=1;exitDx=0;exitDy=0;" parent="1" source="bU3k72d1yjcAS0w8u8sW-43" target="bU3k72d1yjcAS0w8u8sW-140" edge="1">
          <mxGeometry width="50" height="50" relative="1" as="geometry">
            <mxPoint x="856" y="607" as="sourcePoint" />
            <mxPoint x="932" y="666" as="targetPoint" />
          </mxGeometry>
        </mxCell>
        <mxCell id="bU3k72d1yjcAS0w8u8sW-148" value="&lt;u&gt;ingredient_id&lt;/u&gt;" style="ellipse;whiteSpace=wrap;html=1;" parent="1" vertex="1">
          <mxGeometry x="1319" y="928" width="80" height="40" as="geometry" />
        </mxCell>
        <mxCell id="bU3k72d1yjcAS0w8u8sW-149" value="name" style="ellipse;whiteSpace=wrap;html=1;" parent="1" vertex="1">
          <mxGeometry x="1420" y="928" width="80" height="50" as="geometry" />
        </mxCell>
        <mxCell id="bU3k72d1yjcAS0w8u8sW-150" value="&lt;span style=&quot;font-size: 14px;&quot;&gt;ingredient_catogory&lt;/span&gt;" style="rounded=0;whiteSpace=wrap;html=1;" parent="1" vertex="1">
          <mxGeometry x="1319" y="1332" width="131" height="60" as="geometry" />
        </mxCell>
        <mxCell id="bU3k72d1yjcAS0w8u8sW-151" value="&lt;u&gt;ingredient_&lt;/u&gt;&lt;div&gt;&lt;u&gt;catogory_id&lt;/u&gt;&lt;/div&gt;" style="ellipse;whiteSpace=wrap;html=1;" parent="1" vertex="1">
          <mxGeometry x="1270" y="1247" width="90" height="40" as="geometry" />
        </mxCell>
        <mxCell id="bU3k72d1yjcAS0w8u8sW-152" value="name" style="ellipse;whiteSpace=wrap;html=1;" parent="1" vertex="1">
          <mxGeometry x="1380" y="1242" width="80" height="50" as="geometry" />
        </mxCell>
        <mxCell id="bU3k72d1yjcAS0w8u8sW-153" value="" style="endArrow=none;html=1;rounded=0;entryX=0;entryY=0.5;entryDx=0;entryDy=0;exitX=0.563;exitY=0.985;exitDx=0;exitDy=0;exitPerimeter=0;" parent="1" source="bU3k72d1yjcAS0w8u8sW-43" target="bU3k72d1yjcAS0w8u8sW-150" edge="1">
          <mxGeometry width="50" height="50" relative="1" as="geometry">
            <mxPoint x="807" y="608" as="sourcePoint" />
            <mxPoint x="807" y="760" as="targetPoint" />
            <Array as="points">
              <mxPoint x="840" y="720" />
            </Array>
          </mxGeometry>
        </mxCell>
        <mxCell id="bU3k72d1yjcAS0w8u8sW-174" value="1" style="edgeLabel;html=1;align=center;verticalAlign=middle;resizable=0;points=[];" parent="bU3k72d1yjcAS0w8u8sW-153" vertex="1" connectable="0">
          <mxGeometry x="-0.8033" relative="1" as="geometry">
            <mxPoint as="offset" />
          </mxGeometry>
        </mxCell>
        <mxCell id="bU3k72d1yjcAS0w8u8sW-175" value="m" style="edgeLabel;html=1;align=center;verticalAlign=middle;resizable=0;points=[];" parent="bU3k72d1yjcAS0w8u8sW-153" vertex="1" connectable="0">
          <mxGeometry x="0.68" y="-1" relative="1" as="geometry">
            <mxPoint as="offset" />
          </mxGeometry>
        </mxCell>
        <mxCell id="bU3k72d1yjcAS0w8u8sW-155" value="" style="endArrow=none;html=1;rounded=0;exitX=0.712;exitY=0.081;exitDx=0;exitDy=0;exitPerimeter=0;" parent="1" source="bU3k72d1yjcAS0w8u8sW-137" target="bU3k72d1yjcAS0w8u8sW-43" edge="1">
          <mxGeometry width="50" height="50" relative="1" as="geometry">
            <mxPoint x="837" y="608" as="sourcePoint" />
            <mxPoint x="872" y="660" as="targetPoint" />
          </mxGeometry>
        </mxCell>
        <mxCell id="bU3k72d1yjcAS0w8u8sW-158" value="has" style="rhombus;whiteSpace=wrap;html=1;" parent="1" vertex="1">
          <mxGeometry x="881.96" y="785" width="80" height="80" as="geometry" />
        </mxCell>
        <mxCell id="bU3k72d1yjcAS0w8u8sW-159" value="has" style="rhombus;whiteSpace=wrap;html=1;" parent="1" vertex="1">
          <mxGeometry x="1330" y="1102" width="80" height="80" as="geometry" />
        </mxCell>
        <mxCell id="bU3k72d1yjcAS0w8u8sW-160" value="" style="endArrow=none;html=1;rounded=0;exitX=0.5;exitY=1;exitDx=0;exitDy=0;entryX=0.5;entryY=0;entryDx=0;entryDy=0;" parent="1" source="bU3k72d1yjcAS0w8u8sW-111" target="bU3k72d1yjcAS0w8u8sW-159" edge="1">
          <mxGeometry width="50" height="50" relative="1" as="geometry">
            <mxPoint x="1320" y="1032" as="sourcePoint" />
            <mxPoint x="1200" y="1032" as="targetPoint" />
          </mxGeometry>
        </mxCell>
        <mxCell id="bU3k72d1yjcAS0w8u8sW-177" value="m" style="edgeLabel;html=1;align=center;verticalAlign=middle;resizable=0;points=[];" parent="bU3k72d1yjcAS0w8u8sW-160" vertex="1" connectable="0">
          <mxGeometry x="0.0171" relative="1" as="geometry">
            <mxPoint as="offset" />
          </mxGeometry>
        </mxCell>
        <mxCell id="bU3k72d1yjcAS0w8u8sW-161" value="" style="endArrow=none;html=1;rounded=0;exitX=0.436;exitY=0.029;exitDx=0;exitDy=0;entryX=0.5;entryY=1;entryDx=0;entryDy=0;exitPerimeter=0;" parent="1" source="bU3k72d1yjcAS0w8u8sW-150" target="bU3k72d1yjcAS0w8u8sW-159" edge="1">
          <mxGeometry width="50" height="50" relative="1" as="geometry">
            <mxPoint x="1380" y="1062" as="sourcePoint" />
            <mxPoint x="1380" y="1112" as="targetPoint" />
          </mxGeometry>
        </mxCell>
        <mxCell id="bU3k72d1yjcAS0w8u8sW-176" value="1" style="edgeLabel;html=1;align=center;verticalAlign=middle;resizable=0;points=[];" parent="bU3k72d1yjcAS0w8u8sW-161" vertex="1" connectable="0">
          <mxGeometry x="-0.5947" relative="1" as="geometry">
            <mxPoint as="offset" />
          </mxGeometry>
        </mxCell>
        <mxCell id="bU3k72d1yjcAS0w8u8sW-164" value="has" style="rhombus;whiteSpace=wrap;html=1;" parent="1" vertex="1">
          <mxGeometry x="1100" y="810" width="80" height="80" as="geometry" />
        </mxCell>
        <mxCell id="bU3k72d1yjcAS0w8u8sW-165" value="" style="endArrow=none;html=1;rounded=0;exitX=1;exitY=1;exitDx=0;exitDy=0;entryX=0;entryY=0.25;entryDx=0;entryDy=0;" parent="1" source="bU3k72d1yjcAS0w8u8sW-164" target="bU3k72d1yjcAS0w8u8sW-111" edge="1">
          <mxGeometry width="50" height="50" relative="1" as="geometry">
            <mxPoint x="1320" y="1032" as="sourcePoint" />
            <mxPoint x="1200" y="1032" as="targetPoint" />
          </mxGeometry>
        </mxCell>
        <mxCell id="bU3k72d1yjcAS0w8u8sW-171" value="m" style="edgeLabel;html=1;align=center;verticalAlign=middle;resizable=0;points=[];" parent="bU3k72d1yjcAS0w8u8sW-165" vertex="1" connectable="0">
          <mxGeometry x="0.496" relative="1" as="geometry">
            <mxPoint as="offset" />
          </mxGeometry>
        </mxCell>
        <mxCell id="bU3k72d1yjcAS0w8u8sW-166" value="" style="endArrow=none;html=1;rounded=0;exitX=0.635;exitY=0.983;exitDx=0;exitDy=0;exitPerimeter=0;" parent="1" source="bU3k72d1yjcAS0w8u8sW-43" target="bU3k72d1yjcAS0w8u8sW-164" edge="1">
          <mxGeometry width="50" height="50" relative="1" as="geometry">
            <mxPoint x="807" y="608" as="sourcePoint" />
            <mxPoint x="807" y="760" as="targetPoint" />
            <Array as="points">
              <mxPoint x="900" y="740" />
            </Array>
          </mxGeometry>
        </mxCell>
        <mxCell id="bU3k72d1yjcAS0w8u8sW-173" value="1" style="edgeLabel;html=1;align=center;verticalAlign=middle;resizable=0;points=[];" parent="bU3k72d1yjcAS0w8u8sW-166" vertex="1" connectable="0">
          <mxGeometry x="-0.3641" y="2" relative="1" as="geometry">
            <mxPoint as="offset" />
          </mxGeometry>
        </mxCell>
        <mxCell id="bU3k72d1yjcAS0w8u8sW-180" value="is_in_stoke" style="ellipse;whiteSpace=wrap;html=1;" parent="1" vertex="1">
          <mxGeometry x="1450" y="1002" width="80" height="50" as="geometry" />
        </mxCell>
        <mxCell id="bU3k72d1yjcAS0w8u8sW-181" value="" style="endArrow=none;html=1;rounded=0;exitX=0.423;exitY=1.047;exitDx=0;exitDy=0;entryX=0.25;entryY=0;entryDx=0;entryDy=0;exitPerimeter=0;" parent="1" source="bU3k72d1yjcAS0w8u8sW-148" target="bU3k72d1yjcAS0w8u8sW-111" edge="1">
          <mxGeometry width="50" height="50" relative="1" as="geometry">
            <mxPoint x="1320" y="1032" as="sourcePoint" />
            <mxPoint x="1200" y="1032" as="targetPoint" />
          </mxGeometry>
        </mxCell>
        <mxCell id="bU3k72d1yjcAS0w8u8sW-182" value="" style="endArrow=none;html=1;rounded=0;entryX=0.5;entryY=0;entryDx=0;entryDy=0;" parent="1" source="bU3k72d1yjcAS0w8u8sW-149" target="bU3k72d1yjcAS0w8u8sW-111" edge="1">
          <mxGeometry width="50" height="50" relative="1" as="geometry">
            <mxPoint x="1363" y="980" as="sourcePoint" />
            <mxPoint x="1350" y="1002" as="targetPoint" />
          </mxGeometry>
        </mxCell>
        <mxCell id="bU3k72d1yjcAS0w8u8sW-183" value="" style="endArrow=none;html=1;rounded=0;entryX=1;entryY=0.5;entryDx=0;entryDy=0;exitX=0.032;exitY=0.392;exitDx=0;exitDy=0;exitPerimeter=0;" parent="1" source="bU3k72d1yjcAS0w8u8sW-180" target="bU3k72d1yjcAS0w8u8sW-111" edge="1">
          <mxGeometry width="50" height="50" relative="1" as="geometry">
            <mxPoint x="1437" y="977" as="sourcePoint" />
            <mxPoint x="1380" y="1002" as="targetPoint" />
          </mxGeometry>
        </mxCell>
        <mxCell id="bU3k72d1yjcAS0w8u8sW-184" value="" style="endArrow=none;html=1;rounded=0;entryX=0.008;entryY=0.133;entryDx=0;entryDy=0;exitX=0.5;exitY=1;exitDx=0;exitDy=0;entryPerimeter=0;" parent="1" source="bU3k72d1yjcAS0w8u8sW-151" target="bU3k72d1yjcAS0w8u8sW-150" edge="1">
          <mxGeometry width="50" height="50" relative="1" as="geometry">
            <mxPoint x="1437" y="977" as="sourcePoint" />
            <mxPoint x="1380" y="1002" as="targetPoint" />
          </mxGeometry>
        </mxCell>
        <mxCell id="bU3k72d1yjcAS0w8u8sW-185" value="" style="endArrow=none;html=1;rounded=0;" parent="1" source="bU3k72d1yjcAS0w8u8sW-152" target="bU3k72d1yjcAS0w8u8sW-150" edge="1">
          <mxGeometry width="50" height="50" relative="1" as="geometry">
            <mxPoint x="1325" y="1297" as="sourcePoint" />
            <mxPoint x="1330" y="1350" as="targetPoint" />
          </mxGeometry>
        </mxCell>
        <mxCell id="bU3k72d1yjcAS0w8u8sW-186" value="name" style="ellipse;whiteSpace=wrap;html=1;" parent="1" vertex="1">
          <mxGeometry x="750" y="1510" width="80" height="50" as="geometry" />
        </mxCell>
        <mxCell id="bU3k72d1yjcAS0w8u8sW-187" value="has" style="rhombus;whiteSpace=wrap;html=1;" parent="1" vertex="1">
          <mxGeometry x="571.96" y="1270" width="80" height="80" as="geometry" />
        </mxCell>
        <mxCell id="bU3k72d1yjcAS0w8u8sW-190" value="" style="endArrow=none;html=1;rounded=0;entryX=1;entryY=1;entryDx=0;entryDy=0;exitX=0;exitY=0.25;exitDx=0;exitDy=0;" parent="1" source="bU3k72d1yjcAS0w8u8sW-85" target="bU3k72d1yjcAS0w8u8sW-187" edge="1">
          <mxGeometry width="50" height="50" relative="1" as="geometry">
            <mxPoint x="882" y="1152" as="sourcePoint" />
            <mxPoint x="862" y="1050" as="targetPoint" />
          </mxGeometry>
        </mxCell>
        <mxCell id="bU3k72d1yjcAS0w8u8sW-195" value="m" style="edgeLabel;html=1;align=center;verticalAlign=middle;resizable=0;points=[];" parent="bU3k72d1yjcAS0w8u8sW-190" vertex="1" connectable="0">
          <mxGeometry x="-0.2805" y="-4" relative="1" as="geometry">
            <mxPoint y="1" as="offset" />
          </mxGeometry>
        </mxCell>
        <mxCell id="bU3k72d1yjcAS0w8u8sW-191" value="" style="endArrow=none;html=1;rounded=0;" parent="1" source="bU3k72d1yjcAS0w8u8sW-43" target="bU3k72d1yjcAS0w8u8sW-187" edge="1">
          <mxGeometry width="50" height="50" relative="1" as="geometry">
            <mxPoint x="772" y="1427" as="sourcePoint" />
            <mxPoint x="642" y="1340" as="targetPoint" />
            <Array as="points">
              <mxPoint x="610" y="930" />
            </Array>
          </mxGeometry>
        </mxCell>
        <mxCell id="bU3k72d1yjcAS0w8u8sW-192" value="1" style="edgeLabel;html=1;align=center;verticalAlign=middle;resizable=0;points=[];" parent="bU3k72d1yjcAS0w8u8sW-191" vertex="1" connectable="0">
          <mxGeometry x="-0.7374" y="1" relative="1" as="geometry">
            <mxPoint as="offset" />
          </mxGeometry>
        </mxCell>
        <mxCell id="bU3k72d1yjcAS0w8u8sW-196" value="" style="endArrow=none;html=1;rounded=0;exitX=0.5;exitY=0;exitDx=0;exitDy=0;" parent="1" source="bU3k72d1yjcAS0w8u8sW-186" target="bU3k72d1yjcAS0w8u8sW-85" edge="1">
          <mxGeometry width="50" height="50" relative="1" as="geometry">
            <mxPoint x="940" y="1114" as="sourcePoint" />
            <mxPoint x="892" y="1050" as="targetPoint" />
          </mxGeometry>
        </mxCell>
        <mxCell id="bU3k72d1yjcAS0w8u8sW-197" value="" style="endArrow=none;html=1;rounded=0;entryX=0;entryY=0.75;entryDx=0;entryDy=0;" parent="1" source="bU3k72d1yjcAS0w8u8sW-96" target="bU3k72d1yjcAS0w8u8sW-85" edge="1">
          <mxGeometry width="50" height="50" relative="1" as="geometry">
            <mxPoint x="792" y="1510" as="sourcePoint" />
            <mxPoint x="814" y="1472" as="targetPoint" />
          </mxGeometry>
        </mxCell>
        <mxCell id="bU3k72d1yjcAS0w8u8sW-198" value="&lt;span style=&quot;font-size: 14px;&quot;&gt;cart&lt;/span&gt;" style="rounded=0;whiteSpace=wrap;html=1;" parent="1" vertex="1">
          <mxGeometry x="200" y="-320" width="120" height="50" as="geometry" />
        </mxCell>
        <mxCell id="bU3k72d1yjcAS0w8u8sW-200" value="&lt;u&gt;cart_id&lt;/u&gt;" style="ellipse;whiteSpace=wrap;html=1;" parent="1" vertex="1">
          <mxGeometry x="70" y="-290" width="80" height="40" as="geometry" />
        </mxCell>
        <mxCell id="bU3k72d1yjcAS0w8u8sW-201" value="total" style="ellipse;whiteSpace=wrap;html=1;" parent="1" vertex="1">
          <mxGeometry x="70" y="-380" width="80" height="50" as="geometry" />
        </mxCell>
        <mxCell id="bU3k72d1yjcAS0w8u8sW-202" value="has" style="rhombus;whiteSpace=wrap;html=1;" parent="1" vertex="1">
          <mxGeometry x="220" y="-160" width="80" height="80" as="geometry" />
        </mxCell>
        <mxCell id="bU3k72d1yjcAS0w8u8sW-203" value="" style="endArrow=none;html=1;rounded=0;entryX=0.5;entryY=1;entryDx=0;entryDy=0;exitX=0.5;exitY=0;exitDx=0;exitDy=0;" parent="1" source="bU3k72d1yjcAS0w8u8sW-202" target="bU3k72d1yjcAS0w8u8sW-198" edge="1">
          <mxGeometry width="50" height="50" relative="1" as="geometry">
            <mxPoint x="590" y="178" as="sourcePoint" />
            <mxPoint x="720" y="178" as="targetPoint" />
          </mxGeometry>
        </mxCell>
        <mxCell id="bU3k72d1yjcAS0w8u8sW-205" value="1" style="edgeLabel;html=1;align=center;verticalAlign=middle;resizable=0;points=[];" parent="bU3k72d1yjcAS0w8u8sW-203" vertex="1" connectable="0">
          <mxGeometry x="-0.1091" y="1" relative="1" as="geometry">
            <mxPoint as="offset" />
          </mxGeometry>
        </mxCell>
        <mxCell id="bU3k72d1yjcAS0w8u8sW-204" value="" style="endArrow=none;html=1;rounded=0;entryX=0.4;entryY=0.045;entryDx=0;entryDy=0;entryPerimeter=0;" parent="1" source="bU3k72d1yjcAS0w8u8sW-202" target="eclzZpHX3D_ZlUmgVR5c-1" edge="1">
          <mxGeometry width="50" height="50" relative="1" as="geometry">
            <mxPoint x="270" y="-150" as="sourcePoint" />
            <mxPoint x="270" y="-260" as="targetPoint" />
          </mxGeometry>
        </mxCell>
        <mxCell id="bU3k72d1yjcAS0w8u8sW-206" value="1" style="edgeLabel;html=1;align=center;verticalAlign=middle;resizable=0;points=[];" parent="bU3k72d1yjcAS0w8u8sW-204" vertex="1" connectable="0">
          <mxGeometry x="0.3736" y="1" relative="1" as="geometry">
            <mxPoint as="offset" />
          </mxGeometry>
        </mxCell>
        <mxCell id="bU3k72d1yjcAS0w8u8sW-207" value="" style="endArrow=none;html=1;rounded=0;" parent="1" source="bU3k72d1yjcAS0w8u8sW-198" edge="1">
          <mxGeometry width="50" height="50" relative="1" as="geometry">
            <mxPoint x="200" y="110" as="sourcePoint" />
            <mxPoint x="150" y="-270" as="targetPoint" />
          </mxGeometry>
        </mxCell>
        <mxCell id="bU3k72d1yjcAS0w8u8sW-208" value="" style="endArrow=none;html=1;rounded=0;entryX=1;entryY=0.5;entryDx=0;entryDy=0;" parent="1" source="bU3k72d1yjcAS0w8u8sW-198" target="bU3k72d1yjcAS0w8u8sW-201" edge="1">
          <mxGeometry width="50" height="50" relative="1" as="geometry">
            <mxPoint x="210" y="-271" as="sourcePoint" />
            <mxPoint x="160" y="-260" as="targetPoint" />
          </mxGeometry>
        </mxCell>
        <mxCell id="bU3k72d1yjcAS0w8u8sW-209" value="&lt;span style=&quot;font-size: 14px;&quot;&gt;cart_item&lt;/span&gt;" style="rounded=0;whiteSpace=wrap;html=1;" parent="1" vertex="1">
          <mxGeometry x="591.96" y="-320" width="120" height="50" as="geometry" />
        </mxCell>
        <mxCell id="bU3k72d1yjcAS0w8u8sW-210" value="" style="endArrow=none;html=1;rounded=0;" parent="1" source="bU3k72d1yjcAS0w8u8sW-212" target="bU3k72d1yjcAS0w8u8sW-198" edge="1">
          <mxGeometry width="50" height="50" relative="1" as="geometry">
            <mxPoint x="224" y="-310" as="sourcePoint" />
            <mxPoint x="160" y="-345" as="targetPoint" />
          </mxGeometry>
        </mxCell>
        <mxCell id="bU3k72d1yjcAS0w8u8sW-214" value="1" style="edgeLabel;html=1;align=center;verticalAlign=middle;resizable=0;points=[];" parent="bU3k72d1yjcAS0w8u8sW-210" vertex="1" connectable="0">
          <mxGeometry x="0.1474" y="1" relative="1" as="geometry">
            <mxPoint x="1" as="offset" />
          </mxGeometry>
        </mxCell>
        <mxCell id="bU3k72d1yjcAS0w8u8sW-213" value="" style="endArrow=none;html=1;rounded=0;" parent="1" source="bU3k72d1yjcAS0w8u8sW-209" target="bU3k72d1yjcAS0w8u8sW-212" edge="1">
          <mxGeometry width="50" height="50" relative="1" as="geometry">
            <mxPoint x="592" y="-295" as="sourcePoint" />
            <mxPoint x="320" y="-295" as="targetPoint" />
          </mxGeometry>
        </mxCell>
        <mxCell id="bU3k72d1yjcAS0w8u8sW-215" value="m" style="edgeLabel;html=1;align=center;verticalAlign=middle;resizable=0;points=[];" parent="bU3k72d1yjcAS0w8u8sW-213" vertex="1" connectable="0">
          <mxGeometry x="-0.0187" y="2" relative="1" as="geometry">
            <mxPoint as="offset" />
          </mxGeometry>
        </mxCell>
        <mxCell id="bU3k72d1yjcAS0w8u8sW-212" value="has" style="rhombus;whiteSpace=wrap;html=1;" parent="1" vertex="1">
          <mxGeometry x="420" y="-335" width="80" height="80" as="geometry" />
        </mxCell>
        <mxCell id="bU3k72d1yjcAS0w8u8sW-216" value="&lt;u&gt;cart_item_id&lt;/u&gt;" style="ellipse;whiteSpace=wrap;html=1;" parent="1" vertex="1">
          <mxGeometry x="551.96" y="-410" width="80" height="40" as="geometry" />
        </mxCell>
        <mxCell id="bU3k72d1yjcAS0w8u8sW-217" value="" style="endArrow=none;html=1;rounded=0;entryX=0.5;entryY=1;entryDx=0;entryDy=0;" parent="1" source="bU3k72d1yjcAS0w8u8sW-209" target="bU3k72d1yjcAS0w8u8sW-216" edge="1">
          <mxGeometry width="50" height="50" relative="1" as="geometry">
            <mxPoint x="224" y="-310" as="sourcePoint" />
            <mxPoint x="160" y="-345" as="targetPoint" />
          </mxGeometry>
        </mxCell>
        <mxCell id="bU3k72d1yjcAS0w8u8sW-218" value="quantity" style="ellipse;whiteSpace=wrap;html=1;" parent="1" vertex="1">
          <mxGeometry x="651.96" y="-415" width="80" height="50" as="geometry" />
        </mxCell>
        <mxCell id="bU3k72d1yjcAS0w8u8sW-219" value="total_price" style="ellipse;whiteSpace=wrap;html=1;" parent="1" vertex="1">
          <mxGeometry x="736.96" y="-320" width="80" height="50" as="geometry" />
        </mxCell>
        <mxCell id="bU3k72d1yjcAS0w8u8sW-220" value="ingredients&lt;br&gt;(This is lList&amp;lt;String&amp;gt;)" style="ellipse;whiteSpace=wrap;html=1;" parent="1" vertex="1">
          <mxGeometry x="741.96" y="-385" width="80" height="50" as="geometry" />
        </mxCell>
        <mxCell id="bU3k72d1yjcAS0w8u8sW-221" value="" style="endArrow=none;html=1;rounded=0;exitX=0.5;exitY=0;exitDx=0;exitDy=0;" parent="1" source="bU3k72d1yjcAS0w8u8sW-209" target="bU3k72d1yjcAS0w8u8sW-218" edge="1">
          <mxGeometry width="50" height="50" relative="1" as="geometry">
            <mxPoint x="642" y="-310" as="sourcePoint" />
            <mxPoint x="680" y="-440" as="targetPoint" />
          </mxGeometry>
        </mxCell>
        <mxCell id="bU3k72d1yjcAS0w8u8sW-222" value="" style="endArrow=none;html=1;rounded=0;" parent="1" source="bU3k72d1yjcAS0w8u8sW-209" target="bU3k72d1yjcAS0w8u8sW-220" edge="1">
          <mxGeometry width="50" height="50" relative="1" as="geometry">
            <mxPoint x="662" y="-310" as="sourcePoint" />
            <mxPoint x="688" y="-356" as="targetPoint" />
          </mxGeometry>
        </mxCell>
        <mxCell id="bU3k72d1yjcAS0w8u8sW-223" value="" style="endArrow=none;html=1;rounded=0;exitX=1;exitY=0.5;exitDx=0;exitDy=0;" parent="1" source="bU3k72d1yjcAS0w8u8sW-209" target="bU3k72d1yjcAS0w8u8sW-219" edge="1">
          <mxGeometry width="50" height="50" relative="1" as="geometry">
            <mxPoint x="712" y="-310" as="sourcePoint" />
            <mxPoint x="761" y="-334" as="targetPoint" />
          </mxGeometry>
        </mxCell>
      </root>
    </mxGraphModel>
  </diagram>
</mxfile>
